<svg xmlns="http://www.w3.org/2000/svg" version="1.1" xmlns:xlink="http://www.w3.org/1999/xlink" xmlns:svgjs="http://svgjs.com/svgjs" width="1146.44" height="1545.83"><svg id="SvgjsSvg1000" data-name="Layer 1" xmlns="http://www.w3.org/2000/svg" viewBox="0 0 1146.44 1545.83"><path d="M176.29,223.13C223.13,311.88,277.37,461,294.63,549.8L178.75,585.55c-16-86.29-67.8-234.22-114.64-325.44ZM1086,250.25c-4.93,11.09-17.26,17.26-35.75,17.26-128.2,440.08-330.37,694-716.21,867.84-17.26-24.66-56.71-72.73-82.6-94.92,371.06-156.56,564.59-393.24,678-842Zm-519-93.69C593,252.71,621.3,406.8,627.47,504.19L503,521.45c-6.16-98.62-32-249-59.17-347.63Z"></path></svg><style>@media (prefers-color-scheme: light) { :root { filter: none; } }
</style></svg>